<?xml version="1.0" encoding="UTF-8"?>
<svg xmlns="http://www.w3.org/2000/svg" viewBox="0 0 512 256" width="512" height="256" font-family="Courier New, monospace">
  <defs>
    <linearGradient id="bg" x1="0" y1="0" x2="0" y2="1">
      <stop offset="0%"  stop-color="#0e1320"/>
      <stop offset="100%" stop-color="#080c14"/>
    </linearGradient>
    <linearGradient id="hazardStripe" x1="0" y1="0" x2="0" y2="1">
      <stop offset="0%"  stop-color="#fbbf60"/>
      <stop offset="100%" stop-color="#b89040"/>
    </linearGradient>
    <pattern id="grid" width="16" height="16" patternUnits="userSpaceOnUse">
      <path d="M16 0H0V16" fill="none" stroke="#3a9fbf" stroke-opacity="0.06" stroke-width="1"/>
    </pattern>
    <radialGradient id="glow" cx="50%" cy="50%" r="50%">
      <stop offset="0%"  stop-color="#6ec8e6" stop-opacity="0.28"/>
      <stop offset="100%" stop-color="#6ec8e6" stop-opacity="0"/>
    </radialGradient>
  </defs>

  <rect width="512" height="256" fill="url(#bg)"/>
  <rect width="512" height="256" fill="url(#grid)"/>
  <ellipse cx="256" cy="128" rx="240" ry="90" fill="url(#glow)"/>

  <rect x="0" y="0" width="512" height="4" fill="#fbbf60"/>
  <rect x="0" y="252" width="512" height="4" fill="#fbbf60"/>
  <rect x="0" y="0" width="4" height="256" fill="url(#hazardStripe)"/>
  <rect x="508" y="0" width="4" height="256" fill="url(#hazardStripe)"/>

  <text x="24" y="30" fill="#3a9fbf" font-size="10" letter-spacing="3" opacity="0.8">// USG-ISHIMURA · CEC · PLANET-CRACKER CLASS</text>

  <text x="256" y="112" fill="#6ec8e6" font-size="52" font-weight="bold" letter-spacing="6" text-anchor="middle"
        style="filter: drop-shadow(0 0 12px rgba(110,200,230,0.55))">USG ISHIMURA</text>

  <line x1="88" y1="130" x2="424" y2="130" stroke="#fbbf60" stroke-width="1" opacity="0.65"/>
  <circle cx="88"  cy="130" r="3" fill="#fbbf60"/>
  <circle cx="424" cy="130" r="3" fill="#fbbf60"/>

  <text x="256" y="158" fill="#fbbf60" font-size="16" letter-spacing="6" text-anchor="middle">REC DECK · ZED CONTAINMENT OPS</text>

  <g transform="translate(38,196)" fill="#5eead4">
    <rect x="0" y="0" width="8" height="8"/>
    <text x="16" y="8" font-size="10" letter-spacing="1.5" fill="#5eead4">STATUS: ONLINE</text>
  </g>

  <g transform="translate(200,192)">
    <text x="0" y="12" fill="#a0aec0" font-size="10" letter-spacing="2" opacity="0.75">MAP :: KF-BIOTICSLAB   DIFFICULTY :: NORMAL   SLOTS :: 6</text>
  </g>

  <g transform="translate(458,196)" fill="#f0708a">
    <path d="M12 0 L24 6 L24 18 L12 24 L0 18 L0 6 Z" fill="none" stroke="#f0708a" stroke-width="1.5"/>
    <circle cx="12" cy="12" r="3" fill="#f0708a"/>
    <circle cx="12" cy="4"  r="1.5" fill="#f0708a"/>
    <circle cx="12" cy="20" r="1.5" fill="#f0708a"/>
    <circle cx="4"  cy="12" r="1.5" fill="#f0708a"/>
    <circle cx="20" cy="12" r="1.5" fill="#f0708a"/>
  </g>

  <text x="24" y="240" fill="#3a9fbf" font-size="8" letter-spacing="2" opacity="0.5">games.ishimura.lol:7777   ·   webadmin :: nostromo:8380</text>
</svg>
